HIERARCHY
ROOT Hips
{
	OFFSET -14.64140 90.27770 -84.91600
	CHANNELS 6 Xposition Yposition Zposition Zrotation Xrotation Yrotation
	JOINT Spine
	{
		OFFSET 0.00000 13.20850 -1.60436
		CHANNELS 3 Zrotation Xrotation Yrotation
		JOINT Spine1
		{
			OFFSET 0.00000 8.61716 0.00000
			CHANNELS 3 Zrotation Xrotation Yrotation
			JOINT Spine2
			{
				OFFSET 0.00000 8.61717 0.00000
				CHANNELS 3 Zrotation Xrotation Yrotation
				JOINT Spine3
				{
					OFFSET 0.00000 8.61717 0.00000
					CHANNELS 3 Zrotation Xrotation Yrotation
					JOINT Neck
					{
						OFFSET 0.00000 11.07920 1.10792
						CHANNELS 3 Zrotation Xrotation Yrotation
						JOINT Neck1
						{
							OFFSET 0.00000 7.08032 0.00000
							CHANNELS 3 Zrotation Xrotation Yrotation
							JOINT Head
							{
								OFFSET 0.00000 7.08031 0.00000
								CHANNELS 3 Zrotation Xrotation Yrotation
								End site
								{
									OFFSET 0.00000 0.00000 0.00000
								}
							}
						}
					}
					JOINT RightShoulder
					{
						OFFSET -0.01000 7.91373 5.19711
						CHANNELS 3 Zrotation Xrotation Yrotation
						JOINT RightArm
						{
							OFFSET -18.41580 0.00000 0.00000
							CHANNELS 3 Zrotation Xrotation Yrotation
							JOINT RightForeArm
							{
								OFFSET -29.11090 0.00000 0.00000
								CHANNELS 3 Zrotation Xrotation Yrotation
								JOINT RightHand
								{
									OFFSET -24.65040 0.00000 0.00000
									CHANNELS 3 Zrotation Xrotation Yrotation
									JOINT RightHandThumb1
									{
										OFFSET -5.35114 -0.85590 3.97906
										CHANNELS 3 Zrotation Xrotation Yrotation
										JOINT RightHandThumb2
										{
											OFFSET -4.52789 0.00000 0.00000
											CHANNELS 3 Zrotation Xrotation Yrotation
											JOINT RightHandThumb3
											{
												OFFSET -2.46976 0.00000 0.00000
												CHANNELS 3 Zrotation Xrotation Yrotation
												End site
												{
													OFFSET 0.00000 0.00000 0.00000
												}
											}
										}
									}
									JOINT RightHandIndex1
									{
										OFFSET -14.26970 0.00000 2.88139
										CHANNELS 3 Zrotation Xrotation Yrotation
										JOINT RightHandIndex2
										{
											OFFSET -5.48836 0.00000 0.00000
											CHANNELS 3 Zrotation Xrotation Yrotation
											JOINT RightHandIndex3
											{
												OFFSET -3.01859 0.00000 0.00000
												CHANNELS 3 Zrotation Xrotation Yrotation
												End site
												{
													OFFSET 0.00000 0.00000 0.00000
												}
											}
										}
									}
									JOINT RightHandMiddle1
									{
										OFFSET -14.26970 0.00000 -0.09147
										CHANNELS 3 Zrotation Xrotation Yrotation
										JOINT RightHandMiddle2
										{
											OFFSET -6.17441 0.00000 0.00000
											CHANNELS 3 Zrotation Xrotation Yrotation
											JOINT RightHandMiddle3
											{
												OFFSET -3.56743 0.00000 0.00000
												CHANNELS 3 Zrotation Xrotation Yrotation
												End site
												{
													OFFSET 0.00000 0.00000 0.00000
												}
											}
										}
									}
									JOINT RightHandRing1
									{
										OFFSET -12.69180 0.00000 -3.06433
										CHANNELS 3 Zrotation Xrotation Yrotation
										JOINT RightHandRing2
										{
											OFFSET -5.62556 0.00000 0.00000
											CHANNELS 3 Zrotation Xrotation Yrotation
											JOINT RightHandRing3
											{
												OFFSET -3.56744 0.00000 0.00000
												CHANNELS 3 Zrotation Xrotation Yrotation
												End site
												{
													OFFSET 0.00000 0.00000 0.00000
												}
											}
										}
									}
									JOINT RightHandPinky1
									{
										OFFSET -11.11390 0.00000 -6.03719
										CHANNELS 3 Zrotation Xrotation Yrotation
										JOINT RightHandPinky2
										{
											OFFSET -4.52789 0.00000 0.00000
											CHANNELS 3 Zrotation Xrotation Yrotation
											JOINT RightHandPinky3
											{
												OFFSET -2.46976 0.00000 0.00000
												CHANNELS 3 Zrotation Xrotation Yrotation
												End site
												{
													OFFSET 0.00000 0.00000 0.00000
												}
											}
										}
									}
								}
							}
						}
					}
					JOINT LeftShoulder
					{
						OFFSET 0.01000 7.91373 5.19711
						CHANNELS 3 Zrotation Xrotation Yrotation
						JOINT LeftArm
						{
							OFFSET 18.41580 0.00000 0.00000
							CHANNELS 3 Zrotation Xrotation Yrotation
							JOINT LeftForeArm
							{
								OFFSET 29.11090 0.00000 0.00000
								CHANNELS 3 Zrotation Xrotation Yrotation
								JOINT LeftHand
								{
									OFFSET 24.65040 0.00000 0.00000
									CHANNELS 3 Zrotation Xrotation Yrotation
									JOINT LeftHandThumb1
									{
										OFFSET 5.35114 -0.85590 3.97906
										CHANNELS 3 Zrotation Xrotation Yrotation
										JOINT LeftHandThumb2
										{
											OFFSET 4.52789 0.00000 0.00000
											CHANNELS 3 Zrotation Xrotation Yrotation
											JOINT LeftHandThumb3
											{
												OFFSET 2.46977 0.00000 0.00000
												CHANNELS 3 Zrotation Xrotation Yrotation
												End site
												{
													OFFSET 0.00000 0.00000 0.00000
												}
											}
										}
									}
									JOINT LeftHandIndex1
									{
										OFFSET 14.26970 0.00000 2.88139
										CHANNELS 3 Zrotation Xrotation Yrotation
										JOINT LeftHandIndex2
										{
											OFFSET 5.48836 0.00000 0.00000
											CHANNELS 3 Zrotation Xrotation Yrotation
											JOINT LeftHandIndex3
											{
												OFFSET 3.01859 0.00000 0.00000
												CHANNELS 3 Zrotation Xrotation Yrotation
												End site
												{
													OFFSET 0.00000 0.00000 0.00000
												}
											}
										}
									}
									JOINT LeftHandMiddle1
									{
										OFFSET 14.26970 0.00000 -0.09147
										CHANNELS 3 Zrotation Xrotation Yrotation
										JOINT LeftHandMiddle2
										{
											OFFSET 6.17440 0.00000 0.00000
											CHANNELS 3 Zrotation Xrotation Yrotation
											JOINT LeftHandMiddle3
											{
												OFFSET 3.56744 0.00000 0.00000
												CHANNELS 3 Zrotation Xrotation Yrotation
												End site
												{
													OFFSET 0.00000 0.00000 0.00000
												}
											}
										}
									}
									JOINT LeftHandRing1
									{
										OFFSET 12.69180 0.00000 -3.06433
										CHANNELS 3 Zrotation Xrotation Yrotation
										JOINT LeftHandRing2
										{
											OFFSET 5.62556 0.00000 0.00000
											CHANNELS 3 Zrotation Xrotation Yrotation
											JOINT LeftHandRing3
											{
												OFFSET 3.56744 0.00000 0.00000
												CHANNELS 3 Zrotation Xrotation Yrotation
												End site
												{
													OFFSET 0.00000 0.00000 0.00000
												}
											}
										}
									}
									JOINT LeftHandPinky1
									{
										OFFSET 11.11390 0.00000 -6.03719
										CHANNELS 3 Zrotation Xrotation Yrotation
										JOINT LeftHandPinky2
										{
											OFFSET 4.52789 0.00000 0.00000
											CHANNELS 3 Zrotation Xrotation Yrotation
											JOINT LeftHandPinky3
											{
												OFFSET 2.46976 0.00000 0.00000
												CHANNELS 3 Zrotation Xrotation Yrotation
												End site
												{
													OFFSET 0.00000 0.00000 0.00000
												}
											}
										}
									}
								}
							}
						}
					}
					JOINT pCube4
					{
						OFFSET 0.00000 10.91090 1.10792
						CHANNELS 3 Zrotation Xrotation Yrotation
						End site
						{
							OFFSET 0.00000 0.00000 0.00000
						}
					}
				}
			}
		}
	}
	JOINT RightUpLeg
	{
		OFFSET -9.98441 0.00000 0.00000
		CHANNELS 3 Zrotation Xrotation Yrotation
		JOINT RightLeg
		{
			OFFSET 0.00000 -42.11790 0.00000
			CHANNELS 3 Zrotation Xrotation Yrotation
			JOINT RightFoot
			{
				OFFSET 0.00000 -45.00020 -0.00001
				CHANNELS 3 Zrotation Xrotation Yrotation
				JOINT RightForeFoot
				{
					OFFSET 0.00000 -3.74820 0.00000
					CHANNELS 3 Zrotation Xrotation Yrotation
					JOINT RightToeBase
					{
						OFFSET 0.00000 0.06325 14.43120
						CHANNELS 3 Zrotation Xrotation Yrotation
						End site
						{
							OFFSET 0.00000 0.00000 0.00000
						}
					}
				}
			}
		}
	}
	JOINT LeftUpLeg
	{
		OFFSET 9.98441 0.00000 0.00000
		CHANNELS 3 Zrotation Xrotation Yrotation
		JOINT LeftLeg
		{
			OFFSET 0.00000 -42.11800 0.00000
			CHANNELS 3 Zrotation Xrotation Yrotation
			JOINT LeftFoot
			{
				OFFSET 0.00000 -45.00070 0.00000
				CHANNELS 3 Zrotation Xrotation Yrotation
				JOINT LeftForeFoot
				{
					OFFSET 0.00000 -3.74824 0.00000
					CHANNELS 3 Zrotation Xrotation Yrotation
					JOINT LeftToeBase
					{
						OFFSET 0.00000 0.06325 14.43110
						CHANNELS 3 Zrotation Xrotation Yrotation
						End site
						{
							OFFSET 0.00000 0.00000 0.00000
						}
					}
				}
			}
		}
	}
}
MOTION
Frames: 4
Frame Time: 0.050000
0.0017322282256111176 0.010816966070208704 -0.04098063363934657 0.02040280283445141 0.027842931266254457 -0.028052062252325056 -3.746590894367025 4.210501425693645 -0.5548825930284006 -1.0438955339172722 3.8280662578778615 0.3920291237797052 -1.3089028204095143 -1.0376449306745812 -0.09865412910193465 0.4048654479388854 0.8476186986804418 -0.7358837325344317 0.7104899086569263 12.1359925760341 -2.269661280644418 -0.32935079664183997 -1.846468230812631 -9.02595641424044 0.5458978118461527 -18.040010937126166 -0.6763527768665195 -3.615254548875174 1.5579514473431944 -13.12164487305849 69.8166395366355 15.05165244380169 22.66306891996458 6.824625077842132 5.115641255010208 84.71750145837672 13.500898960957143 -0.4413694895870599 -4.4684696908164705 4.4886102183049434 -0.14462451943476398 -1.590008442471792 0.0005753237430525802 0.02058508995603492 -56.235451296760715 0.03807764810028906 0.01979097392776802 -56.25116669512362 -38.73639807671231 0.010023860131943004 -0.034691348782496675 -0.01861272805405233 0.03228567097138371 0.03705936688468265 0.01989516621964897 -0.03569112155905428 -0.037036633996437134 -36.698614711038076 -0.003288218092585258 -0.044800024865618265 0.02183537690252781 0.0343022060365858 0.030782539287875558 0.024209724058422647 -0.02098288060345811 0.003855177227402707 -19.76694280547617 -0.039270370006077845 -0.013460842025412955 0.043043138435687286 0.03354361993051182 0.03706165043448329 0.037273546969108284 0.025584522309790168 -0.01177094421578064 24.09795744995129 0.028268170596058816 -0.049153553537465325 28.88987105430216 0.011452594215662 0.026859877284167253 28.889700553594547 0.021006555356022815 -0.04178916243418087 1.392288823662586 0.5615717627551311 11.617903806524666 -66.05670266209022 25.994728126529054 -7.359450534629582 6.86132287735024 -13.367833455743957 -52.89829566282233 -8.865994614756193 2.513056820413018 0.6213907154000726 -0.44397522333421485 0.03620106841886706 -8.138458415350486 -0.033958432055661104 -0.04372022949563114 44.5192519135899 0.04558858447386971 0.023927262038594965 44.59360078026604 12.477714325086337 0.02857075940573338 0.04469851032467931 -0.04592953539862944 -0.0018441543329258303 0.0067526067820381334 0.0238402128531023 -0.020668725936204495 -0.039152765233364036 11.131347751718739 -0.035059126315289964 -0.03519564741203744 0.041617889518411326 -0.04012128220936286 -0.016584165207907384 0.026557990948707724 -0.020801502649398274 -0.031260677434494046 4.733815544290242 0.015691356740457164 0.005550471196605807 0.0016569051558277435 0.022268680744760853 -0.008013441936386641 0.016791486926396704 -0.03941810301869013 0.034345415573875125 -5.564450146132474 -0.0447879320636018 -0.00480640600114051 -6.702835127619053 0.022980518536837774 -0.028720548828653325 -6.766513589870626 -0.008107432016368057 -0.01870577699452831 0.048808740779205245 0.038409840212102545 0.020616700867196552 8.084532888720167 3.476102949805996 -19.218951926079324 0.02448660577787641 10.349085423557653 -0.017836641311226867 -5.629532563649769 -15.635029041560587 3.1563091819985867 0.01002522030519053 0.019419779600979566 -0.0007350724772139764 -0.040315217841192005 4.7119511777396434 0.0034843205101731155 12.488495812872772 -8.266840635894908 6.835267737942155 -0.001005397051862239 46.42080133055754 0.012155261239295497 -4.323527596901935 -14.737739087280582 -3.840353339811813 -0.02133469846849688 0.002897537911212938 -0.00859214186257169 0.002753006965175578 -10.695759352780808 -0.027885342270399707 
0.005487206123109555 -0.027840803798558557 0.020762225930423896 0.03241782547518269 -0.025531048062367036 -0.014306912969467756 -3.505897435066435 4.0119335484648255 -0.6563537434367045 -1.0296124207184365 3.9063675437588423 0.38226194114293116 -1.330537611506943 -1.0964642537279699 -0.09241194016872291 0.36962640196466856 0.7489992328291861 -0.8031976233034636 0.5773103102171616 12.449324535104129 -2.0941999935384974 -0.31725730484667874 -1.7755071111975425 -8.356245482593797 0.4884198036236402 -17.95829083272894 -0.7147726279616522 -4.159873644098887 1.6932817953165173 -13.362290811829826 70.45964980712965 14.541082574057477 21.977127135939064 4.43773706731342 4.988981017452055 82.58934288567082 13.29280246069078 -0.41780270572544076 -4.138188731156932 4.567345647529512 -0.0776094958932001 -1.5567242553308094 0.01834201214890856 0.0225051507871715 -56.26486587245887 0.03387480675233777 -0.017840514086560035 -56.27733743333351 -38.755329767435796 0.0009281242597487887 0.019560352559622695 -0.011556060997320004 -0.04759465502194875 -0.034188940513805055 0.04524640809951736 -0.03662724750841367 0.0061345136372816305 -36.68281903526988 0.025682995113115226 0.005981639827936667 0.019692484292599094 0.013098457032543719 0.03178878731271996 0.0470096008370641 -0.0037658779283551197 -0.010457028064599033 -19.72443620517801 -0.0008626652521960265 -0.004446225649053932 0.022630083675088935 -0.025481823734802515 -0.03257606349344551 -0.03400463744913984 0.005876423560394503 0.0005380075228037234 24.070531773452274 0.03165529801554508 0.008932988478316263 28.906362087014436 0.041772753138293865 -0.043885087496112044 28.862446795128267 0.03854818868070314 -0.049739391681415585 2.018456985035724 0.6930252620643539 11.890303606083958 -66.32391848638329 26.10971117647046 -7.65861653050393 6.464141008984303 -13.514762243504203 -52.8151218274986 -9.0304011925625 1.908698954493416 0.9935216516738699 -0.4649159382142401 0.030735385042105483 -8.145730033058502 0.022508689398539745 -0.027610723663516277 44.613497999776996 -0.033854610337723204 -0.037185737400906534 44.53854635534408 12.480073586575923 -0.04309268929559494 0.044225569754084294 -0.021690086243759156 0.023182718118411515 0.01662748499802669 0.0019231641109324913 0.03461388595196396 0.007143169276600863 11.071140896524891 -0.005221190286093761 -0.007362479619458595 0.046649408785028865 0.011718404599664688 0.01656533279510726 -0.017450668402448903 0.017822703725167786 -0.045894787663547355 4.75268284834788 0.018730845629583978 -0.04309528544164694 -0.007662740522112333 0.005893883860573002 8.704709205712142e-05 0.027043650963641936 -0.011575972216118202 -0.014649807689111954 -5.575998957142014 -0.04644706490509567 0.03286225088611816 -6.737214179297014 0.01850313770411538 -0.005419524453137192 -6.747110808475641 -0.014518284766443209 -0.018701746826836018 -0.006312200263050605 0.01540455016898627 -0.009529467703207119 8.051354869301441 3.449325030398442 -19.248690411602812 0.023789704996786794 10.369614377810503 -0.023876981762345106 -5.66745358365314 -15.685372734198037 3.150304347954528 0.0017841146704656123 0.04967643894725666 0.024785913224011656 -0.027103808680733383 4.68128649829339 0.04115563638061854 12.416346519383803 -8.269024519290577 6.926091646241523 0.002294341051518474 46.40957902488007 0.015231806054288286 -4.318210114601856 -14.73276080298397 -3.8169617989459272 -0.02331872608378353 0.04581951230483975 -0.01677680208432082 0.017755961644937313 -10.72859615328859 0.040040915452312364 
-0.03379249753068155 0.03942033386282634 -0.03638635232458362 -0.001495272272523576 0.012768612208057556 0.01435026001573952 -3.2017319038056886 3.782318347037386 -0.633554825043803 -1.0216300029932288 3.905624056488356 0.3808479849707663 -1.3440327535000411 -1.214910920269219 -0.03338874347645906 0.29045730800334907 0.7194680534435124 -0.7840400541397249 0.5988399948476202 12.708099555485063 -1.934756192628833 -0.328242203758799 -1.618943204198498 -7.867003929590574 0.4564076765257606 -17.773925240377682 -0.6787143078611864 -4.668028696351163 1.7565406674332065 -13.587243046852358 70.96163548943234 14.775676156508508 21.134577667267315 1.628820616337399 4.747238048088532 79.1829976849932 13.36002545558519 -0.4647445759781239 -3.784047718629153 4.547516342418637 -0.13391810603823762 -1.6241001065997827 -0.04077140944571248 0.007739520441496483 -56.21673381987009 -0.009760757687291238 -0.007654676657937434 -56.278807281551565 -38.72766257296111 0.028279640008577498 -0.042887210211606984 -0.042479057895235726 -0.006019271322405864 -0.03128260726763054 0.028606475465258196 -0.04446820733894257 -0.01219836697358549 -36.65538718046149 0.007461216121401618 0.03959918167422071 -0.026182438942740097 -0.0066924264287885425 0.03803151295147018 0.013154757518530675 0.017201153433071843 0.004280173475337418 -19.736321040990656 -0.01180014623109913 -0.010226516202190634 -0.003991962504036709 -0.03188525399807781 -0.0218803156583744 -0.031687709380717875 -0.031028913541882464 0.009763157704672109 24.006493446110227 0.03781255030780936 0.00920659067137442 28.854674416627635 -0.0036384522201176163 0.0067582250249030515 28.830111934263357 0.037386570216116764 0.03165703614464911 2.6893034621854186 0.8284467576730382 12.128654000129725 -66.40323375859838 26.320028566644645 -8.142087743159173 6.054379376910973 -13.547864975592848 -53.08947941299893 -9.240418434702242 1.3248134368172613 1.3745947407052719 -0.4684884561394091 0.03760457922048996 -8.093274661183818 -0.014743094606417298 0.020482617180047614 44.61565127890412 -0.0075043431965050094 -0.011948759674570437 44.61360286768522 12.442180726951413 -0.019828714156181773 0.0334375183023854 0.0050106550568981695 -0.015916229280459656 0.014300857751618547 -0.03009293050250553 -0.0029518293730605187 -0.0466239835918236 11.099352617764724 0.03184238065138396 0.03396487890831403 -0.029166848521634977 -0.012462537059998011 -0.005462441724693662 -0.012067067380822825 0.00827743131141197 0.011719080561499928 4.7562601805358815 -0.04247686034207393 0.00671008049372974 0.03579199331462916 -0.02797946472676437 -0.039335944211046935 0.021544655084693175 -0.03267988904719527 0.027392688176573615 -5.623514530564833 -0.00279862008748817 -0.015076261356244373 -6.697650478023939 -0.016377600019289288 0.02728605884818157 -6.696478000063254 -0.046455252397009525 0.00911885714482036 0.03478416826693402 -0.04735660653472996 -0.03570867621172251 8.028765007880265 3.5415851971239976 -19.208968141018893 0.0009472644502046891 10.409066786802164 0.05551105313811251 -5.576751646507588 -15.689448672132375 3.1901433904324077 -0.020317415183013124 0.03588092797336098 0.027937664378702924 0.02811725440256665 4.714731773642287 -0.024739356986405996 12.496609786049975 -8.266128413424745 6.871508397087186 0.04956556355598957 46.38739551111431 0.017666289193752637 -4.317050162026367 -14.743067772083577 -3.855283333442406 0.04898871813506509 -0.019374486175124658 -0.044257508880914946 0.045525068558718365 -10.722989108479194 -0.004504166712352838 
0.021360737694187712 0.047417808168643535 0.0279972661326133 0.023620669851040364 -0.03356646757859141 -0.030250157494487336 -3.0151697970676103 3.4832541994361024 -0.7577133666361072 -1.0792975619377407 3.903291396435282 0.4374016334504513 -1.3583538683634782 -1.2938984914132088 0.028114060471437934 0.27625213000561044 0.6916125004855498 -0.6919680850818591 0.5328293754412661 13.041597608107912 -1.8854314265772056 -0.27140104073196164 -1.3748360961327926 -7.519541517123996 0.4983086813351341 -17.55467934133338 -0.5835047997599925 -5.27920411208042 1.912907306879286 -13.661450304316569 71.29381102335452 13.933493430942288 21.43825005471138 0.12830595219021573 4.098312354351461 78.05134114049208 13.12194051298993 -0.4290253429329468 -3.3499671609278745 4.576085348641633 -0.13568652996989367 -1.610078606765882 0.016233577152970566 -0.008879494582729958 -56.22397569249579 0.04281706132466181 0.004909418078251139 -56.24747322547171 -38.729374026446116 -0.009687669398588717 -0.004466144427422995 0.035126001461321665 -0.0056579230649869494 -0.04630255147261187 0.0061126494790211304 -0.013033919032772932 -0.042351592674517546 -36.65343577656839 0.014855900779420401 0.015104818455663095 -0.001869509682936875 0.015069935590204234 0.04002330720746265 -0.0033552568872190105 -0.0022182154500161016 -0.038033985859212596 -19.749300215139634 -0.0024561986171948505 0.02097415457578975 0.02489990156166107 -0.013090217003938465 -0.034300216450536006 0.022627684371970182 0.00929493616450221 -0.014905839639838124 24.097634994926274 -0.012394828889023672 -0.03615113430550709 28.81713685275044 -0.017585512589027005 -0.024324316950480887 28.842309196227685 -0.03675907193714077 0.017915331852101944 3.5729215440182034 1.024234672252086 12.247988684982078 -66.41503516480675 25.76184170057184 -9.441203759053348 5.677205423161675 -13.504120746919888 -53.888595466376266 -9.00915985914278 0.893757896618114 1.5391265759510357 -0.4586768903121576 0.047263316042790465 -8.119444940930595 -0.044642939729547325 -0.027772760589209515 44.57480765152144 -0.0005333444499962753 -0.027813910266117674 44.60753306897562 12.47964082007105 0.017312552609495473 -0.004197872504428506 -0.028021116712444786 -0.018036469826569482 -0.0013909511951042117 0.01710174371158255 0.010333562461440465 0.024325380651435274 11.147019841566266 -0.016488554563863316 0.03638832562484432 -0.015424406482523327 -0.008635256641172666 0.033626392110799756 -0.042057322901754804 0.0037708986162711703 0.008070089887876017 4.738447444213373 -0.018527921337962047 -0.017524323734788835 -0.006709459144786103 0.020246168858846926 0.008277927042850707 -0.035518875491081583 -0.014075836350733905 -0.009315626478462418 -5.609373315812792 -0.040228793397314846 -0.01162214566407365 -6.7255996260990845 0.03664021646819011 -0.0042621475802969945 -6.732936366209232 -0.03744413999160272 0.0032598070455683286 -0.01318468334617777 -0.006043245031158043 -0.0044324554787654145 7.999904694786496 3.4674464943654573 -19.244754675594027 0.04157638167936446 10.407895863287159 0.05152807299936597 -5.593018846164018 -15.665333709170781 3.1906995799309548 -0.01951598219628867 -0.009558091874959034 -0.006496920133310095 0.045417548793293745 4.6980136803757215 0.0023084486259349188 12.431120094510153 -8.251099372977707 6.888690728570938 0.021092743830082673 46.38568898017975 -0.0054880599794202055 -4.306338068403669 -14.783315714598947 -3.823464235718112 -0.012980551441008707 0.0007594831542737606 0.043335089644354736 -0.010516917509874778 -10.7383716947573 0.028819921783354647 
